<svg xmlns="http://www.w3.org/2000/svg" width="512" height="512" viewBox="0 0 512 512">
  <rect width="512" height="512" rx="96" fill="#FAF8F5"/>
  <defs>
    <linearGradient id="p" x1="0" y1="0" x2="1" y2="1">
      <stop stop-color="#7A4DFF"/><stop offset="1" stop-color="#5431E8"/>
    </linearGradient>
    <linearGradient id="t" x1="0" y1="0" x2="1" y2="1">
      <stop stop-color="#00B9D0"/><stop offset="1" stop-color="#00A5B8"/>
    </linearGradient>
  </defs>
  <path d="M104 112c0-27 21-48 48-48h72l64 64v216c0 27-21 48-48 48h-88c-27 0-48-21-48-48z" fill="url(#p)"/>
  <path d="M224 64v44c0 11 9 20 20 20h44z" fill="#4322C8"/>
  <path d="M408 112c0-27-21-48-48-48h-72l-64 64v216c0 27 21 48 48 48h88c27 0 48-21 48-48z" fill="url(#t)"/>
  <path d="M288 64v44c0 11-9 20-20 20h-44z" fill="#008D9F"/>
  <g fill="#fff">
    <circle cx="144" cy="176" r="12"/><rect x="168" y="164" width="72" height="24" rx="12"/>
    <circle cx="144" cy="224" r="12"/><rect x="168" y="212" width="72" height="24" rx="12"/>
    <circle cx="144" cy="272" r="12"/><rect x="168" y="260" width="72" height="24" rx="12"/>
    <circle cx="336" cy="176" r="12"/><rect x="360" y="164" width="48" height="24" rx="12"/>
    <circle cx="336" cy="224" r="12"/><rect x="360" y="212" width="48" height="24" rx="12"/>
    <circle cx="336" cy="272" r="12"/><rect x="360" y="260" width="48" height="24" rx="12"/>
  </g>
  <path d="M190 322l48 48 92-98" fill="none" stroke="#fff" stroke-width="48" stroke-linecap="round" stroke-linejoin="round"/>
  <path d="M190 322l48 48 92-98" fill="none" stroke="#FF8500" stroke-width="28" stroke-linecap="round" stroke-linejoin="round"/>
</svg>
